<svg width="21" height="14" viewBox="0 0 21 14" fill="none" xmlns="http://www.w3.org/2000/svg">
<path d="M10.2051 13.6035H0V11.6406H4.01367V3.22266C2.67904 4.38802 1.46484 5.1888 0.371094 5.625V3.22266C1.48438 2.79948 2.18099 2.5 2.46094 2.32422C2.74089 2.14193 3.15104 1.8099 3.69141 1.32812C4.23177 0.839844 4.61263 0.397135 4.83398 0H6.43555V11.6406H10.2051V13.6035ZM20.8887 13.6035H18.5449L16.0254 8.54492L13.8379 10.9961V13.6035H11.709V0.273438H13.8379V8.54492C14.0267 8.29753 14.1764 8.11198 14.2871 7.98828L18.1934 3.74023H20.5859L17.6172 7.00195L20.8887 13.6035Z" fill="white"/>
</svg>
