<svg width="51" height="49" viewBox="0 0 51 49" fill="none" xmlns="http://www.w3.org/2000/svg">
<path d="M4.25 18.0968C4.25004 15.7321 4.96739 13.4231 6.30728 11.4746C7.64718 9.52616 9.5466 8.02997 11.7547 7.18367C13.9627 6.33737 16.3756 6.18077 18.6745 6.73454C20.9735 7.28832 23.0504 8.52642 24.6309 10.2853C24.7422 10.4044 24.8768 10.4992 25.0263 10.5641C25.1758 10.629 25.337 10.6625 25.5 10.6625C25.663 10.6625 25.8242 10.629 25.9737 10.5641C26.1232 10.4992 26.2578 10.4044 26.3691 10.2853C27.9447 8.51499 30.022 7.26648 32.3247 6.70598C34.6274 6.14548 37.0462 6.29956 39.2591 7.14773C41.472 7.99589 43.3742 9.49791 44.7124 11.4539C46.0505 13.4098 46.7613 15.7269 46.75 18.0968C46.75 22.9631 43.5625 26.5968 40.375 29.7843L28.7045 41.0745C28.3085 41.5292 27.8203 41.8945 27.2723 42.1461C26.7243 42.3977 26.1291 42.5298 25.5261 42.5336C24.9231 42.5374 24.3263 42.4129 23.7751 42.1682C23.224 41.9236 22.7312 41.5645 22.3295 41.1148L10.625 29.7843C7.4375 26.5968 4.25 22.9843 4.25 18.0968Z" stroke="white" stroke-width="4.25" stroke-linecap="round" stroke-linejoin="round"/>
</svg>
