<?xml version="1.0" encoding="UTF-8"?>
<svg version="1.1" xmlns="http://www.w3.org/2000/svg" width="536" height="466">
<path d="M0 0 C0.87722194 -0.00905664 1.75444388 -0.01811328 2.65824831 -0.02744436 C3.6227272 -0.02211644 4.5872061 -0.01678851 5.58091164 -0.01129913 C7.11692227 -0.02043579 7.11692227 -0.02043579 8.68396342 -0.02975702 C12.13178985 -0.04647007 15.57925032 -0.04159931 19.02710915 -0.03681183 C21.49231795 -0.04414735 23.95752331 -0.05273206 26.42272377 -0.06247711 C32.43388315 -0.08244043 38.44489743 -0.08807066 44.45607708 -0.08628923 C49.34155862 -0.08498264 54.22701002 -0.08878045 59.11248589 -0.09621429 C60.51867346 -0.09831345 61.92486103 -0.10041105 63.33104861 -0.10250711 C64.38083905 -0.10407241 64.38083905 -0.10407241 65.45183738 -0.10566932 C78.69485978 -0.12458112 91.93782682 -0.12351873 105.18085714 -0.11669999 C117.29887938 -0.11112485 129.41669018 -0.13194695 141.53466301 -0.16506046 C153.97284686 -0.19878553 166.4109294 -0.21396722 178.84915984 -0.20934343 C185.83409533 -0.2070974 192.81883544 -0.21236114 199.80373192 -0.23723602 C206.37174658 -0.26042673 212.93939422 -0.2576808 219.50744247 -0.2373085 C221.92095911 -0.23388652 224.33450505 -0.23903826 226.74798203 -0.25329208 C230.03745692 -0.27138196 233.32541933 -0.25881045 236.61484718 -0.23834991 C237.57486464 -0.25086776 238.53488209 -0.26338561 239.52399099 -0.27628279 C244.12419133 -0.21474083 246.07052865 -0.13640679 249.77777481 2.80700684 C251.31180026 4.83660559 252.72408015 6.72177039 253.9084568 8.9651413 C254.27100563 9.63682343 254.63355446 10.30850555 255.00708961 11.00054169 C255.38832985 11.72491425 255.76957008 12.4492868 256.16236305 13.19561005 C257.03873928 14.81677196 257.91779038 16.43648986 258.7990818 18.05498505 C259.26878395 18.91801239 259.7384861 19.78103973 260.22242165 20.67021942 C262.88586203 25.47947349 265.68687433 30.20784637 268.47486305 34.94561005 C273.40807877 43.3499483 278.2337639 51.80644551 282.97486305 60.32061005 C286.86266762 67.30144803 290.7760167 74.25895981 294.84986305 81.13311005 C298.68712514 87.61886053 302.50959835 94.11246193 306.28736305 100.63311005 C306.81281715 101.52739716 307.33827126 102.42168427 307.87964821 103.34307098 C308.36610817 104.18644012 308.85256813 105.02980927 309.3537693 105.89873505 C309.7876194 106.64413544 310.2214695 107.38953583 310.66846657 108.15752411 C311.81833062 110.58002484 312.38808242 112.72637982 312.72486305 115.38311005 C310.85504164 117.25293146 307.70195794 116.62259476 305.20077324 116.69496727 C304.52130661 116.71543974 303.84183998 116.73591221 303.14178345 116.75700505 C300.8775437 116.82294395 298.61319073 116.88075991 296.34870338 116.93752289 C295.56481834 116.95849442 294.7809333 116.97946595 293.97329417 117.00107299 C277.35013623 117.442834 260.73318669 117.52778354 244.10510612 117.51383471 C239.98421122 117.51151377 235.86332 117.51509209 231.74242592 117.51781464 C223.73240496 117.52219841 215.72239351 117.52133043 207.71237221 117.518402 C201.20392366 117.51612277 194.69547773 117.51584619 188.18702888 117.51692581 C187.25294463 117.51707904 186.31886038 117.51723228 185.35647054 117.51739015 C183.45794135 117.51770993 181.55941217 117.51803415 179.66088298 117.51836275 C161.98256745 117.52119464 144.30425717 117.51796448 126.6259425 117.51256238 C111.47287827 117.50807567 96.31982168 117.50888998 81.16675758 117.51348114 C63.49856797 117.51883195 45.83038289 117.52094179 28.16219258 117.51786888 C26.28008032 117.51755036 24.39796805 117.51723599 22.51585579 117.51692581 C21.12727005 117.5166944 21.12727005 117.5166944 19.71063207 117.51645831 C13.19928931 117.51559622 6.68794944 117.51704897 0.17660713 117.51940536 C-7.74064841 117.52220824 -15.65789403 117.52145388 -23.57514843 117.51612462 C-27.61059544 117.51349744 -31.6460259 117.51246624 -35.68147278 117.51577377 C-39.37513186 117.51875561 -43.06875907 117.51711253 -46.76241526 117.51179622 C-48.72896196 117.51015234 -50.69551088 117.51341219 -52.66205525 117.51685345 C-58.3035113 117.50431408 -63.72146136 117.41133393 -69.27513695 116.38311005 C-70.53759704 111.93772028 -70.53759704 111.93772028 -69.4118557 109.5588913 C-68.69449242 108.63656708 -68.69449242 108.63656708 -67.96263695 107.69561005 C-64.87956479 103.39200818 -62.30317151 98.96077671 -59.77513695 94.32061005 C-55.78624684 87.0424198 -51.66320888 79.85363903 -47.46263695 72.69561005 C-42.13884139 63.62312359 -36.91416404 54.50131147 -31.80125999 45.30815887 C-28.67702069 39.72729649 -25.37323976 34.30680884 -21.88622093 28.94463348 C-19.6949037 25.46057524 -17.76363222 21.85580901 -15.8181057 18.2307663 C-14.11618426 15.08975179 -12.36609812 11.98143549 -10.58763695 8.88311005 C-10.02689476 7.90342255 -9.46615257 6.92373505 -8.8884182 5.91436005 C-6.33731437 1.9116596 -4.89620836 0.01014058 0 0 Z " fill="#FDFDFC" transform="translate(71.27513694763184,348.6168899536133)"/>
<path d="M0 0 C5.37858495 2.41798332 7.10297364 6.12030258 9.6875 11.125 C10.56706745 12.76796873 11.44862599 14.40987287 12.33203125 16.05078125 C12.998396 17.29722412 12.998396 17.29722412 13.67822266 18.56884766 C15.65452305 22.20386784 17.75703356 25.75873944 19.875 29.3125 C23.62328201 35.63272571 27.29997797 41.99038494 30.9375 48.375 C34.76759738 55.09752339 38.6160474 61.80843841 42.5 68.5 C46.96519861 76.19406752 51.38442388 83.91366776 55.79199219 91.64086914 C58.9553385 97.18294816 62.14902762 102.70507117 65.375 108.2109375 C67.18515008 111.31778164 68.96912372 114.43878555 70.75 117.5625 C77.97376082 130.22765071 85.24175564 142.86268623 92.83203125 155.3125 C95.14969616 159.1869941 97.2844568 163.15794484 99.43579102 167.12646484 C101.93297061 171.71391666 104.49382329 176.26479004 107.0625 180.8125 C107.61832764 181.79661865 108.17415527 182.7807373 108.74682617 183.79467773 C113.23236511 191.70629362 117.83278354 199.54575532 122.47705078 207.36499023 C125.98098903 213.2653245 129.41680421 219.19628481 132.8046875 225.1640625 C135.68397986 230.21588683 138.6283102 235.22994468 141.5625 240.25 C146.52084607 248.73802746 151.46147464 257.23594058 156.375 265.75 C157.29551147 267.34485229 157.29551147 267.34485229 158.23461914 268.97192383 C161.59275964 274.79847833 164.93416627 280.63419657 168.2578125 286.48046875 C168.97346192 287.73796036 169.68911942 288.99544737 170.40478516 290.25292969 C171.75930495 292.63326977 173.10994963 295.01567076 174.45849609 297.39941406 C178.8519229 305.12574611 183.51267545 312.63459541 188.35546875 320.08544922 C191.09058788 324.51134805 191.09058788 324.51134805 190.59375 327.19140625 C190.3978125 327.78824219 190.201875 328.38507813 190 329 C177.92153177 330.01969402 165.91211825 330.14728587 153.796875 330.1328125 C151.78200265 330.13348802 149.76713038 330.1344601 147.7522583 330.13571167 C143.55683608 330.13717564 139.36143533 330.1350754 135.16601562 330.13037109 C129.8147245 330.12465979 124.46348338 330.12796998 119.11219406 330.13394356 C114.96156442 330.13757187 110.81094648 330.13640042 106.66031647 330.13381577 C104.68773645 330.13315354 102.71515533 330.13395 100.7425766 330.13629532 C73.26514164 330.16181852 73.26514164 330.16181852 68 327 C66.38671875 324.875 66.38671875 324.875 64.6875 322 C64.35685547 321.44586426 64.02621094 320.89172852 63.68554688 320.32080078 C62.44207316 318.2223023 61.21985684 316.11231759 60 314 C59.48002441 313.10120117 58.96004883 312.20240234 58.42431641 311.27636719 C55.96491711 307.02049453 53.50943717 302.76242325 51.06225586 298.49951172 C46.36670845 290.3286699 41.57835799 282.21792426 36.75 274.125 C31.66965355 265.59985677 26.74510088 257.0184976 22.01513672 248.29467773 C15.2428951 235.85516595 7.86844936 223.75589153 0.5625 211.625 C-8.97424025 195.7894109 -18.1608747 179.74255275 -27.38647461 163.72460938 C-31.62826621 156.36403129 -35.89941694 149.02119108 -40.1875 141.6875 C-44.74200311 133.8941247 -49.26733577 126.08494121 -53.75 118.25 C-54.25168701 117.37432373 -54.75337402 116.49864746 -55.27026367 115.59643555 C-55.73279541 114.78601807 -56.19532715 113.97560059 -56.671875 113.140625 C-57.0750293 112.43454102 -57.47818359 111.72845703 -57.89355469 111.00097656 C-60.27239551 106.69890697 -61.71361381 104.04209105 -61 99 C-59.39401416 95.5420383 -57.39276472 92.35566647 -55.375 89.125 C-54.18249245 87.16603457 -52.99112765 85.20637313 -51.80078125 83.24609375 C-50.86613037 81.71831299 -50.86613037 81.71831299 -49.91259766 80.15966797 C-46.12453925 73.9016833 -42.49817389 67.5480679 -38.84716797 61.20947266 C-35.83870659 56.02384695 -32.70483783 50.98443655 -29.34204102 46.02172852 C-27.48012842 43.21683526 -25.82840709 40.31361793 -24.1875 37.375 C-20.28868873 30.45821297 -16.23818582 23.64169839 -12.12011719 16.85351562 C-10.99110656 14.98528357 -9.87383518 13.11038858 -8.7578125 11.234375 C-8.04720292 10.05188621 -7.33627917 8.86958615 -6.625 7.6875 C-5.99851562 6.63949219 -5.37203125 5.59148437 -4.7265625 4.51171875 C-3 2 -3 2 0 0 Z " fill="#FBFBFB" transform="translate(345,136)"/>
<path d="M0 0 C2.31640625 0.15234375 2.31640625 0.15234375 5 1 C6.52734375 3.31640625 6.52734375 3.31640625 7.9375 6.5625 C11.11770059 13.47881604 14.81832584 20.00952072 18.6875 26.5625 C19.91553046 28.64833985 21.14339408 30.73427793 22.37109375 32.8203125 C23.2835083 34.36960449 23.2835083 34.36960449 24.21435547 35.95019531 C26.93139749 40.59078718 29.5925574 45.26260221 32.25 49.9375 C35.35483915 55.39441321 38.47722133 60.83765107 41.68115234 66.23706055 C43.3143202 68.99073519 44.93374884 71.75228397 46.54882812 74.51660156 C47.62825425 76.36382945 48.71077679 78.20924866 49.79492188 80.05371094 C51.75454592 83.4016487 53.69149687 86.7619206 55.625 90.125 C56.56835205 91.72649902 56.56835205 91.72649902 57.53076172 93.36035156 C63.2225263 103.34662443 63.2225263 103.34662443 62 109 C60.43893397 112.65386543 58.54531304 116.06011079 56.5625 119.5 C55.74313965 120.95986328 55.74313965 120.95986328 54.90722656 122.44921875 C51.08403609 129.22313376 47.13224684 135.91833797 43.08203125 142.55859375 C39.5896419 148.29574197 36.31266191 154.1580311 33 160 C31.75084972 162.18798533 30.50083314 164.37547629 29.25 166.5625 C26.9498219 170.58610024 24.65145875 174.61072699 22.35546875 178.63671875 C-0.80995295 219.24336433 -0.80995295 219.24336433 -8.37109375 231.328125 C-10.57484216 234.94290657 -12.57234208 238.65537399 -14.5703125 242.38671875 C-15.98283258 244.9686202 -17.4714079 247.48534719 -19 250 C-21.60216968 254.28751273 -24.01262038 258.65570332 -26.3984375 263.06640625 C-33.42118233 275.93001933 -40.93707942 288.53255628 -48.35058594 301.17285156 C-49.82399178 303.69831629 -51.27911551 306.23304259 -52.7265625 308.7734375 C-53.50498571 310.1199204 -54.2836127 311.46628551 -55.0625 312.8125 C-56.03896484 314.52373047 -56.03896484 314.52373047 -57.03515625 316.26953125 C-59.23941917 319.33271173 -60.59529306 320.4080816 -64 322 C-66.81659808 322.27525725 -69.405174 322.39043089 -72.21728516 322.35644531 C-73.44079681 322.35951187 -73.44079681 322.35951187 -74.68902588 322.36264038 C-77.38926591 322.36564913 -80.08889465 322.34713405 -82.7890625 322.328125 C-84.69021454 322.32506086 -86.59136883 322.32318973 -88.49252319 322.32244873 C-92.49233524 322.31784131 -96.49194651 322.30342358 -100.49169922 322.28125 C-105.53543669 322.25338515 -110.57901517 322.24216925 -115.62282181 322.23743439 C-133.15577978 322.21935562 -150.68735625 322.16877898 -168.2109375 321.546875 C-169.30773834 321.5086261 -170.40453918 321.4703772 -171.53457642 321.43096924 C-178.7386823 321.13065885 -178.7386823 321.13065885 -181 320 C-181.32881379 315.76758852 -180.4699684 313.50125898 -178.2890625 309.89453125 C-177.70898438 308.92064453 -177.12890625 307.94675781 -176.53125 306.94335938 C-175.9021875 305.91017578 -175.273125 304.87699219 -174.625 303.8125 C-173.32400292 301.63241554 -172.02453272 299.45141919 -170.7265625 297.26953125 C-170.0862207 296.19783691 -169.44587891 295.12614258 -168.78613281 294.02197266 C-166.4429807 290.05757451 -164.20829284 286.04057652 -162 282 C-157.6653548 274.11370188 -153.14113427 266.34541475 -148.59155273 258.58154297 C-144.03157575 250.79114949 -139.53333739 242.96676486 -135.0625 235.125 C-133.7150465 232.76290513 -132.36734516 230.40095174 -131.01953125 228.0390625 C-130.68630859 227.45512726 -130.35308594 226.87119202 -130.00976562 226.26956177 C-121.49179428 211.34737039 -112.97401446 196.42635856 -104.03027344 181.75390625 C-101.05392081 176.85015486 -98.27893771 171.86389603 -95.55102539 166.81811523 C-92.46485826 161.21074435 -89.14006921 155.74253853 -85.85546875 150.25 C-82.64450625 144.85496994 -79.56253507 139.41170757 -76.57666016 133.88916016 C-73.60617411 128.44587557 -70.51699103 123.06961088 -67.4375 117.6875 C-67.09261536 117.08382599 -66.74773071 116.48015198 -66.39239502 115.85818481 C-61.12625839 106.64373221 -55.78676177 97.47573925 -50.33764648 88.36791992 C-47.28099648 83.24271515 -44.38026736 78.05413437 -41.54052734 72.8059082 C-38.91460947 68.02307553 -36.14033639 63.32814167 -33.375 58.625 C-28.71556489 50.67633275 -24.10799786 42.70183491 -19.5625 34.6875 C-16.55841615 29.39119821 -13.52877699 24.15609115 -10.1875 19.0625 C-6.21983076 13.00349772 -3.13052047 6.51795296 0 0 Z " fill="#FBFBFB" transform="translate(266,0)"/>
<path d="M0 0 C0.66 0 1.32 0 2 0 C2 0.99 2 1.98 2 3 C3.00221242 2.99723462 3.00221242 2.99723462 4.02467155 2.99441338 C20.26512582 2.95028801 36.50556115 2.91716963 52.74606133 2.89637566 C60.59977239 2.88605316 68.45344349 2.87197429 76.30712891 2.84912109 C83.15059915 2.82921694 89.99404046 2.81629065 96.83753884 2.81182301 C100.46275228 2.80921057 104.08788295 2.80305013 107.71306992 2.78853989 C111.75520282 2.77249127 115.79719084 2.77201839 119.83935547 2.77294922 C121.04776093 2.76575867 122.25616638 2.75856812 123.50119019 2.75115967 C124.59777954 2.753909 125.6943689 2.75665833 126.82418823 2.75949097 C127.78100935 2.75764738 128.73783047 2.75580379 129.72364616 2.75390434 C132 3 132 3 134 5 C130.55634214 5.77791279 127.37987085 6.12546984 123.85220337 6.12698364 C122.32989861 6.13121338 122.32989861 6.13121338 120.77684021 6.13552856 C119.67437454 6.13350433 118.57190887 6.1314801 117.43603516 6.12939453 C116.26636703 6.13114685 115.09669891 6.13289917 113.8915863 6.13470459 C110.02406329 6.13910661 106.15658599 6.1361905 102.2890625 6.1328125 C99.6001278 6.1330352 96.91119391 6.13445511 94.22225952 6.13571167 C88.58501694 6.13752982 82.94778747 6.13513685 77.31054688 6.13037109 C70.8048407 6.12493443 64.2991659 6.12668822 57.79346049 6.1321975 C52.19838939 6.13674501 46.60332771 6.137371 41.00825536 6.13475883 C37.67082533 6.13320439 34.33342179 6.13337522 30.99599075 6.13629532 C27.27155701 6.1388384 23.5471832 6.13495756 19.82275391 6.12939453 C18.1751281 6.13243088 18.1751281 6.13243088 16.49421692 6.13552856 C11.2203704 6.12095612 6.19544355 5.92561873 1 5 C0.67 3.35 0.34 1.7 0 0 Z " fill="#9C999A" transform="translate(1,460)"/>
<path d="M0 0 C7.65377999 -0.05057791 15.30751713 -0.08568184 22.96142578 -0.10986328 C25.56691091 -0.11994064 28.17238469 -0.1336027 30.77783203 -0.15087891 C34.51597899 -0.17505102 38.25397685 -0.1864656 41.9921875 -0.1953125 C43.16304901 -0.20563507 44.33391052 -0.21595764 45.54025269 -0.22659302 C46.62122223 -0.22674408 47.70219177 -0.22689514 48.81591797 -0.22705078 C49.77078094 -0.231492 50.72564392 -0.23593323 51.70944214 -0.24050903 C54 0 54 0 56 2 C52.67641812 2.74053675 49.58424714 3.132511 46.18139648 3.16113281 C44.7898661 3.17554413 44.7898661 3.17554413 43.370224 3.19024658 C41.88565453 3.1966214 41.88565453 3.1966214 40.37109375 3.203125 C38.83111473 3.21167511 38.83111473 3.21167511 37.26002502 3.22039795 C35.09401474 3.22982572 32.92799025 3.23637308 30.76196289 3.24023438 C27.44587456 3.2499754 24.13039706 3.2810343 20.81445312 3.3125 C18.70833701 3.31902708 16.60221647 3.32427871 14.49609375 3.328125 C13.50435654 3.3404718 12.51261932 3.3528186 11.49082947 3.36553955 C10.56629471 3.36253845 9.64175995 3.35953735 8.68920898 3.35644531 C7.47272926 3.36191376 7.47272926 3.36191376 6.23167419 3.36749268 C3.4841601 2.91505598 2.08118735 1.80172983 0 0 Z " fill="#A5A2A3" transform="translate(79,463)"/>
<path d="M0 0 C17.49 0 34.98 0 53 0 C53 0.66 53 1.32 53 2 C46.89226537 2.89691835 40.98045216 3.13305622 34.8125 3.09765625 C33.86938965 3.0962413 32.9262793 3.09482635 31.95458984 3.09336853 C28.96969303 3.0878124 25.98487379 3.07526823 23 3.0625 C20.96484484 3.05747932 18.92968849 3.05291741 16.89453125 3.04882812 C11.92965803 3.03785737 6.96484213 3.02062339 2 3 C2 2.34 2 1.68 2 1 C1.34 0.67 0.68 0.34 0 0 Z " fill="#A7A4A4" transform="translate(161,463)"/>
<path d="M0 0 C1.5625 1.25 1.5625 1.25 3 3 C2.58984375 5.109375 2.58984375 5.109375 2 7 C-11.98064029 8.31141684 -25.97175681 8.09936099 -40 8 C-40 7.01 -40 6.02 -40 5 C-26.47 5 -12.94 5 1 5 C0.505 2.525 0.505 2.525 0 0 Z " fill="#969595" transform="translate(533,458)"/>
<path d="M0 0 C0.66 0 1.32 0 2 0 C2.59663452 1.21780151 2.59663452 1.21780151 3.20532227 2.46020508 C4.79016478 5.31620844 4.79016478 5.31620844 8.03100586 5.62768555 C9.85450562 5.63215698 9.85450562 5.63215698 11.71484375 5.63671875 C12.69306847 5.65228569 12.69306847 5.65228569 13.6910553 5.66816711 C15.77373926 5.69785458 17.85464276 5.69447734 19.9375 5.6875 C22.01628633 5.69640736 24.09459629 5.71242761 26.17323303 5.7389679 C28.06191074 5.76067918 29.95079722 5.76112335 31.83959961 5.76049805 C34.83132041 5.9872171 36.49006465 6.42714876 39 8 C37.4636137 9.5363863 36.05152711 9.12965124 33.9140625 9.1328125 C32.64852539 9.13595459 32.64852539 9.13595459 31.35742188 9.13916016 C30.45572266 9.1344873 29.55402344 9.12981445 28.625 9.125 C27.71556641 9.12161621 26.80613281 9.11823242 25.86914062 9.11474609 C8.01287484 8.97773335 8.01287484 8.97773335 3 6 C0 2.57142857 0 2.57142857 0 0 Z " fill="#908E8D" transform="translate(410,457)"/>
<path d="M0 0 C0.66 0 1.32 0 2 0 C2 0.99 2 1.98 2 3 C3.27846802 2.99214478 3.27846802 2.99214478 4.58276367 2.98413086 C7.76033273 2.96703668 10.93787825 2.95452438 14.11547852 2.94506836 C15.48788222 2.94005546 16.86028062 2.93324342 18.23266602 2.92456055 C20.21107651 2.91236143 22.1895268 2.90727752 24.16796875 2.90234375 C25.35672607 2.89710693 26.5454834 2.89187012 27.77026367 2.88647461 C30.64737487 2.98760521 33.20673413 3.33449807 36 4 C36 4.33 36 4.66 36 5 C32.83350749 5.17008588 29.6667838 5.33543399 26.5 5.5 C25.613125 5.54769531 24.72625 5.59539062 23.8125 5.64453125 C9.33742978 6.38957163 9.33742978 6.38957163 4 5.5 C2.515 5.2525 2.515 5.2525 1 5 C0.67 3.35 0.34 1.7 0 0 Z " fill="#868584" transform="translate(1,460)"/>
<path d="M0 0 C1.56717773 -0.00580078 1.56717773 -0.00580078 3.16601562 -0.01171875 C4.16697266 -0.01042969 5.16792969 -0.00914062 6.19921875 -0.0078125 C7.10889404 -0.00668457 8.01856934 -0.00555664 8.95581055 -0.00439453 C11.3125 0.125 11.3125 0.125 14.3125 1.125 C15.64356622 1.46727417 16.97650079 1.80251743 18.3125 2.125 C15.19295872 3.68477064 11.88290616 3.24604126 8.4609375 3.22265625 C7.68690582 3.2212413 6.91287415 3.21982635 6.11538696 3.21836853 C3.63938558 3.21276403 1.16347412 3.20021083 -1.3125 3.1875 C-2.98958203 3.18248558 -4.66666547 3.17792257 -6.34375 3.17382812 C-10.45836806 3.16279315 -14.57291878 3.14552554 -18.6875 3.125 C-18.3575 2.465 -18.0275 1.805 -17.6875 1.125 C-11.94970051 -0.3935466 -5.89131213 -0.02205107 0 0 Z " fill="#A09E9D" transform="translate(471.6875,462.875)"/>
<path d="M0 0 C11.55 0 23.1 0 35 0 C35 0.66 35 1.32 35 2 C31.66726265 2.19925938 28.33381434 2.38223367 25 2.5625 C23.59814453 2.64661133 23.59814453 2.64661133 22.16796875 2.73242188 C16.60460962 3.02420644 11.50609796 2.83574701 6 2 C4.33369491 1.96528531 2.66585346 1.94794208 1 2 C0.67 1.34 0.34 0.68 0 0 Z " fill="#989595" transform="translate(216,463)"/>
<path d="M0 0 C1.26096748 0.00033989 1.26096748 0.00033989 2.54740906 0.00068665 C3.45062393 0.0161705 4.35383881 0.03165436 5.28442383 0.04760742 C6.21241287 0.05185226 7.14040192 0.05609711 8.09651184 0.06047058 C11.06178751 0.07726955 14.02638468 0.11492402 16.99145508 0.15307617 C19.00121089 0.16812143 21.01097735 0.18181011 23.02075195 0.1940918 C27.94874794 0.22717709 32.87623646 0.27896784 37.80395508 0.34057617 C37.80395508 0.67057617 37.80395508 1.00057617 37.80395508 1.34057617 C36.11653198 1.35459473 36.11653198 1.35459473 34.39501953 1.36889648 C30.21070139 1.40884873 26.02711445 1.47462169 21.84326172 1.5480957 C20.03443819 1.57627507 18.22549222 1.59750472 16.41650391 1.61157227 C13.81194514 1.63304431 11.20885373 1.67971428 8.60473633 1.73120117 C7.39664055 1.73304413 7.39664055 1.73304413 6.16413879 1.73492432 C1.14137887 1.86517223 -1.55317747 2.56291864 -5.19604492 6.34057617 C-5.52604492 7.00057617 -5.85604492 7.66057617 -6.19604492 8.34057617 C-7.18604492 8.34057617 -8.17604492 8.34057617 -9.19604492 8.34057617 C-7.37708201 3.1635279 -5.85024007 -0.05270487 0 0 Z " fill="#C1C0BC" transform="translate(71.196044921875,348.659423828125)"/>
<path d="M0 0 C1.24845703 -0.01224609 2.49691406 -0.02449219 3.78320312 -0.03710938 C4.97236328 -0.03904297 6.16152344 -0.04097656 7.38671875 -0.04296875 C8.47557373 -0.04707764 9.56442871 -0.05118652 10.6862793 -0.05541992 C13.3125 0.1875 13.3125 0.1875 15.3125 2.1875 C10.79225725 2.37967298 6.27176059 2.55840744 1.75048828 2.72460938 C0.21193132 2.78307259 -1.3264898 2.84523085 -2.86474609 2.91113281 C-5.07364165 3.00512837 -7.28268213 3.08590086 -9.4921875 3.1640625 C-10.52664505 3.21235703 -10.52664505 3.21235703 -11.58200073 3.2616272 C-13.28316977 3.31520248 -14.98703998 3.2601782 -16.6875 3.1875 C-17.3475 2.5275 -18.0075 1.8675 -18.6875 1.1875 C-12.50154426 -0.25117779 -6.31914963 0.00329294 0 0 Z " fill="#6C6868" transform="translate(367.6875,462.8125)"/>
<path d="M0 0 C1.25554687 -0.01417969 2.51109375 -0.02835937 3.8046875 -0.04296875 C7.125 0.1875 7.125 0.1875 10.125 2.1875 C7.18368109 3.16793964 5.29998335 3.30371202 2.23828125 3.28515625 C1.30048828 3.28193359 0.36269531 3.27871094 -0.60351562 3.27539062 C-1.57998047 3.26701172 -2.55644531 3.25863281 -3.5625 3.25 C-5.04459961 3.24323242 -5.04459961 3.24323242 -6.55664062 3.23632812 C-8.99615474 3.22454303 -11.43554689 3.20809011 -13.875 3.1875 C-13.875 2.5275 -13.875 1.8675 -13.875 1.1875 C-12.4209375 1.2184375 -12.4209375 1.2184375 -10.9375 1.25 C-7.13146477 1.17232581 -4.17613643 0.02135039 0 0 Z " fill="#989494" transform="translate(321.875,462.8125)"/>
<path d="M0 0 C0.66 0 1.32 0 2 0 C1.49396008 2.16874252 1.00016187 3.99967627 0 6 C0.66 6.33 1.32 6.66 2 7 C1.34 7 0.68 7 0 7 C0 7.66 0 8.32 0 9 C-0.86625 9.556875 -0.86625 9.556875 -1.75 10.125 C-4.98302251 12.81918542 -6.30653832 16.20772676 -8 20 C-8.66 20 -9.32 20 -10 20 C-8.56347895 15.08558588 -6.45840385 10.99761642 -3.875 6.625 C-3.50246094 5.98433594 -3.12992188 5.34367187 -2.74609375 4.68359375 C-1.83565998 3.11951523 -0.91851809 1.55934466 0 0 Z " fill="#898787" transform="translate(204,108)"/>
<path d="M0 0 C4.32078795 3.67468882 6.60709485 8.33296716 9.25 13.25 C9.70890625 14.09046875 10.1678125 14.9309375 10.640625 15.796875 C11.76666925 17.86128945 12.88619714 19.92896314 14 22 C13.34 22.33 12.68 22.66 12 23 C12 22.34 12 21.68 12 21 C11.34 21 10.68 21 10 21 C9.773125 20.319375 9.54625 19.63875 9.3125 18.9375 C7.90235523 15.78146171 6.14354855 13.35678745 4.0234375 10.6484375 C3 9 3 9 3 6 C2.34 6 1.68 6 1 6 C0.67 4.02 0.34 2.04 0 0 Z " fill="#B8B3B1" transform="translate(477,362)"/>
<path d="M0 0 C0 0.66 0 1.32 0 2 C-6.27 2 -12.54 2 -19 2 C-19.33 1.34 -19.66 0.68 -20 0 C-13.14975385 -1.37004923 -6.85024615 -1.37004923 0 0 Z " fill="#807C7C" transform="translate(157,464)"/>
<path d="M0 0 C2.3125 0.125 2.3125 0.125 5 1 C8 5.86206897 8 5.86206897 8 9 C7.34 9 6.68 9 6 9 C4.98133771 7.34467377 3.98189187 5.67739862 3 4 C2.34 3.67 1.68 3.34 1 3 C0.34 4.98 -0.32 6.96 -1 9 C-1.66 9 -2.32 9 -3 9 C-2.44271087 5.65626525 -1.64826111 2.96687001 0 0 Z " fill="#918C8C" transform="translate(266,0)"/>
<path d="M0 0 C0.66 0 1.32 0 2 0 C2 0.99 2 1.98 2 3 C6.29 3 10.58 3 15 3 C15.33 3.66 15.66 4.32 16 5 C10.62374766 5.84888195 6.34629602 6.0024305 1 5 C0.67 3.35 0.34 1.7 0 0 Z " fill="#8D8B8B" transform="translate(1,460)"/>
<path d="M0 0 C0.69738281 0.00451172 1.39476562 0.00902344 2.11328125 0.01367188 C3.82555803 0.0253998 5.53779033 0.04333347 7.25 0.0625 C6.26171875 1.55078125 6.26171875 1.55078125 4.25 3.0625 C1.43872957 3.27964241 -1.1383345 3.34534276 -3.9375 3.25 C-4.68708984 3.23646484 -5.43667969 3.22292969 -6.20898438 3.20898438 C-8.05629767 3.17368539 -9.90324066 3.11987917 -11.75 3.0625 C-11.75 2.4025 -11.75 1.7425 -11.75 1.0625 C-7.88276369 -0.20332219 -4.01848738 -0.0493765 0 0 Z " fill="#B5B3B3" transform="translate(346.75,462.9375)"/>
<path d="M0 0 C1.1171875 3.71875 1.1171875 3.71875 0.0625 6.25 C-0.288125 6.8275 -0.63875 7.405 -1 8 C-1.66 8 -2.32 8 -3 8 C-3.103125 8.53625 -3.20625 9.0725 -3.3125 9.625 C-4.18092697 12.62502044 -5.55620296 15.2379535 -7 18 C-7.66 18 -8.32 18 -9 18 C-7.45614871 13.85967154 -5.48971062 10.06446947 -3.375 6.1875 C-3.05015625 5.59001953 -2.7253125 4.99253906 -2.390625 4.37695312 C-1.59620849 2.91662865 -0.79844624 1.45812509 0 0 Z " fill="#B1AEAD" transform="translate(29,412)"/>
<path d="M0 0 C2 4 2 4 2 6 C0.34997172 7.35386936 -1.3174387 8.68678142 -3 10 C-3.33 10.66 -3.66 11.32 -4 12 C-4.99 11.67 -5.98 11.34 -7 11 C-4.69 7.37 -2.38 3.74 0 0 Z " fill="#BDBBB9" transform="translate(292,222)"/>
<path d="M0 0 C4.62 0 9.24 0 14 0 C14 0.66 14 1.32 14 2 C10.86967764 3.56516118 7.40926916 3.540337 4 3 C2.68 2.01 1.36 1.02 0 0 Z " fill="#ADA9A9" transform="translate(79,463)"/>
<path d="M0 0 C0 0.33 0 0.66 0 1 C-5.94 1.33 -11.88 1.66 -18 2 C-18.33 1.34 -18.66 0.68 -19 0 C-12.97127109 -2.0095763 -6.15025498 -1.29479052 0 0 Z " fill="#807F7E" transform="translate(288,464)"/>
<path d="M0 0 C3.15685778 2.90926109 5.25095848 5.80261659 7.3125 9.5625 C7.84488281 10.51253906 8.37726563 11.46257812 8.92578125 12.44140625 C10 15 10 15 9 18 C7.49185257 15.56721456 5.99335653 13.12933973 4.5 10.6875 C4.07074219 9.99720703 3.64148438 9.30691406 3.19921875 8.59570312 C2.79316406 7.92861328 2.38710938 7.26152344 1.96875 6.57421875 C1.40317383 5.65515747 1.40317383 5.65515747 0.82617188 4.7175293 C0 3 0 3 0 0 Z " fill="#959394" transform="translate(382,408)"/>
<path d="M0 0 C0.66 0 1.32 0 2 0 C1.30058404 3.14737182 0.23921302 6.02588876 -1 9 C-1.66 9 -2.32 9 -3 9 C-3.33 10.32 -3.66 11.64 -4 13 C-4.99 12.67 -5.98 12.34 -7 12 C-5.88407791 9.99492073 -4.75701288 7.99603904 -3.625 6 C-2.68527344 4.329375 -2.68527344 4.329375 -1.7265625 2.625 C-1.15679687 1.75875 -0.58703125 0.8925 0 0 Z " fill="#B7B5B3" transform="translate(112,268)"/>
<path d="M0 0 C0.33 0 0.66 0 1 0 C1.125 2.375 1.125 2.375 1 5 C0.34 5.66 -0.32 6.32 -1 7 C-1.6425235 9.06874034 -1.6425235 9.06874034 -2 11 C-2.66 11 -3.32 11 -4 11 C-4.33 12.32 -4.66 13.64 -5 15 C-5.99 14.67 -6.98 14.34 -8 14 C-5.36 9.38 -2.72 4.76 0 0 Z " fill="#929191" transform="translate(148,205)"/>
<path d="M0 0 C0.66 0.33 1.32 0.66 2 1 C-0.64 5.62 -3.28 10.24 -6 15 C-6.92538169 11.29847322 -7.08174162 10.36541838 -6 7 C-5.34 7 -4.68 7 -4 7 C-3.71125 6.401875 -3.4225 5.80375 -3.125 5.1875 C-2 3 -2 3 0 0 Z " fill="#A9A6A5" transform="translate(272,203)"/>
<path d="M0 0 C3.63 0 7.26 0 11 0 C11 0.99 11 1.98 11 3 C3.57142857 3.14285714 3.57142857 3.14285714 0 2 C0 1.34 0 0.68 0 0 Z " fill="#978F96" transform="translate(93,463)"/>
<path d="M0 0 C2.1015625 0.4296875 2.1015625 0.4296875 4 1 C3.07347299 2.17539996 2.13336613 3.34010577 1.1875 4.5 C0.66542969 5.1496875 0.14335938 5.799375 -0.39453125 6.46875 C-2 8 -2 8 -5 8 C-2.89285714 2.00274725 -2.89285714 2.00274725 0 0 Z " fill="#B4B3B2" transform="translate(67,349)"/>
<path d="M0 0 C1.5625 1.25 1.5625 1.25 3 3 C2.67 4.32 2.34 5.64 2 7 C-0.97 7 -3.94 7 -7 7 C-7.33 6.34 -7.66 5.68 -8 5 C-5.03 5 -2.06 5 1 5 C0.67 3.35 0.34 1.7 0 0 Z " fill="#A89E9E" transform="translate(533,458)"/>
<path d="M0 0 C3.65047197 1.73397418 5.55609075 3.19333016 7 7 C5.68 6.34 4.36 5.68 3 5 C3 4.34 3 3.68 3 3 C2.401875 3.33 1.80375 3.66 1.1875 4 C-1 5 -1 5 -4 5 C-2.25 1.125 -2.25 1.125 0 0 Z " fill="#928F8C" transform="translate(345,136)"/>
<path d="M0 0 C6.625 -0.125 6.625 -0.125 10 1 C11.33106622 1.34227417 12.66400079 1.67751743 14 2 C10.26025568 3.86987216 5.53209172 3.30641834 1.5 2.5 C1.005 2.335 0.51 2.17 0 2 C0 1.34 0 0.68 0 0 Z " fill="#7F7D7E" transform="translate(476,463)"/>
<path d="M0 0 C0.99 0.33 1.98 0.66 3 1 C3 1.66 3 2.32 3 3 C-5.57142857 3.28571429 -5.57142857 3.28571429 -9 1 C-6.01002175 -0.49498913 -3.29957225 -0.11577446 0 0 Z " fill="#939191" transform="translate(300,463)"/>
<path d="M0 0 C3.22269618 3.79817765 5.74520378 7.57391854 8 12 C7.67 12.66 7.34 13.32 7 14 C4.22685913 12.61342957 3.74046543 10.8798864 2.375 8.125 C1.70597656 6.79855469 1.70597656 6.79855469 1.0234375 5.4453125 C0 3 0 3 0 0 Z " fill="#B7B5B3" transform="translate(347,398)"/>
<path d="M0 0 C1 4 1 4 -0.43359375 6.796875 C-1.09488281 7.77140625 -1.75617188 8.7459375 -2.4375 9.75 C-3.42556641 11.22726563 -3.42556641 11.22726563 -4.43359375 12.734375 C-4.95050781 13.48203125 -5.46742188 14.2296875 -6 15 C-6.66 14.67 -7.32 14.34 -8 14 C-5.36 9.38 -2.72 4.76 0 0 Z " fill="#A1A1A0" transform="translate(192,129)"/>
<path d="M0 0 C0.66 0.66 1.32 1.32 2 2 C-0.31 5.96 -2.62 9.92 -5 14 C-5.33 12.68 -5.66 11.36 -6 10 C-5.34 10 -4.68 10 -4 10 C-3.855625 9.4225 -3.71125 8.845 -3.5625 8.25 C-3.04166667 6.16666667 -2.52083333 4.08333333 -2 2 C-1.34 2 -0.68 2 0 2 C0 1.34 0 0.68 0 0 Z " fill="#AAA7A7" transform="translate(304,146)"/>
<path d="M0 0 C0 0.66 0 1.32 0 2 C-4.40914783 3.10228696 -8.48382401 3.07654536 -13 3 C-12.67 2.34 -12.34 1.68 -12 1 C-7.96960118 0.06269795 -4.12580711 -0.0982335 0 0 Z " fill="#8E8788" transform="translate(466,463)"/>
<path d="M0 0 C0.66 0 1.32 0 2 0 C1.49396008 2.16874252 1.00016187 3.99967627 0 6 C0.66 6.33 1.32 6.66 2 7 C1.34 7 0.68 7 0 7 C0 7.66 0 8.32 0 9 C-0.99 9.33 -1.98 9.66 -3 10 C-2.49287967 6.28111761 -1.88391785 3.26545761 0 0 Z " fill="#BDBCBC" transform="translate(204,108)"/>
<path d="M0 0 C0.6875 1.6875 0.6875 1.6875 1 4 C-0.3125 6.5625 -0.3125 6.5625 -2 9 C-2.99 10.485 -2.99 10.485 -4 12 C-4.66 12 -5.32 12 -6 12 C-4.43358249 7.69235185 -2.31663844 3.93828536 0 0 Z " fill="#9D9B9A" transform="translate(242,43)"/>
<path d="M0 0 C0.66 0 1.32 0 2 0 C1.55530671 5.03985731 -0.71343362 7.37634988 -4 11 C-4.33 10.34 -4.66 9.68 -5 9 C-4.00390625 6.8359375 -4.00390625 6.8359375 -2.5625 4.375 C-2.08941406 3.55773438 -1.61632812 2.74046875 -1.12890625 1.8984375 C-0.75636719 1.27195313 -0.38382813 0.64546875 0 0 Z " fill="#9F9E9E" transform="translate(248,32)"/>
<path d="M0 0 C0.33 0.99 0.66 1.98 1 3 C1.66 3.33 2.32 3.66 3 4 C1.37660195 5.70884005 -0.29319053 7.37446717 -2 9 C-2.66 9 -3.32 9 -4 9 C-3.35455571 5.51460083 -1.89865603 2.97180943 0 0 Z " fill="#BDBBBB" transform="translate(91,305)"/>
<path d="M0 0 C0.66 0 1.32 0 2 0 C0.55049545 3.7910119 -1.15172566 7.3874638 -3 11 C-3.98120464 7.94736336 -3.98120464 6.05263664 -3 3 C-2.34 3 -1.68 3 -1 3 C-0.67 2.01 -0.34 1.02 0 0 Z " fill="#B7B3B1" transform="translate(292,167)"/>
<path d="M0 0 C4.29 0.33 8.58 0.66 13 1 C13 1.33 13 1.66 13 2 C8.38 2.33 3.76 2.66 -1 3 C-0.67 2.01 -0.34 1.02 0 0 Z " fill="#887E7E" transform="translate(253,463)"/>
<path d="M0 0 C0.33 0 0.66 0 1 0 C1.39169887 2.66355234 1.40564529 4.39224373 -0.11328125 6.66796875 C-1.36389317 8.1510888 -2.67864514 9.57954352 -4 11 C-4.66 10.67 -5.32 10.34 -6 10 C-5.02526874 8.33073546 -4.04510211 6.66464358 -3.0625 5 C-2.24458984 3.6078125 -2.24458984 3.6078125 -1.41015625 2.1875 C-0.71212891 1.1046875 -0.71212891 1.1046875 0 0 Z " fill="#807F7E" transform="translate(119,256)"/>
<path d="M0 0 C0.66 0 1.32 0 2 0 C1.37240135 2.92879371 0.41377341 5.36095629 -1 8 C-1.66 8 -2.32 8 -3 8 C-3.33 8.99 -3.66 9.98 -4 11 C-4.66 10.67 -5.32 10.34 -6 10 C-5.05065487 8.32819726 -4.09026687 6.66266064 -3.125 5 C-2.59132812 4.071875 -2.05765625 3.14375 -1.5078125 2.1875 C-1.01023438 1.465625 -0.51265625 0.74375 0 0 Z " fill="#908E8D" transform="translate(234,56)"/>
<path d="M0 0 C1.06544301 3.19632902 1.19353531 3.97025652 0 7 C-2.0625 9.25 -2.0625 9.25 -4 11 C-4.66 10.67 -5.32 10.34 -6 10 C-4.02 6.7 -2.04 3.4 0 0 Z " fill="#908D8D" transform="translate(12,442)"/>
<path d="M0 0 C0 3.29223784 -0.50518132 5.08510357 -2 8 C-4.078125 9.15234375 -4.078125 9.15234375 -6 10 C-5.38003922 8.70590711 -4.75383647 7.41480327 -4.125 6.125 C-3.77695313 5.40570313 -3.42890625 4.68640625 -3.0703125 3.9453125 C-2 2 -2 2 0 0 Z " fill="#A29EA1" transform="translate(19,431)"/>
<path d="M0 0 C7 8.44827586 7 8.44827586 7 12 C6.34 12 5.68 12 5 12 C4.15885829 10.56705502 3.32734313 9.12845595 2.5 7.6875 C1.80390625 6.48673828 1.80390625 6.48673828 1.09375 5.26171875 C0 3 0 3 0 0 Z " fill="#ABA7A7" transform="translate(328,365)"/>
<path d="M0 0 C3.09592835 3.5087188 4.74194623 6.49197399 6 11 C2.99229937 8.99486625 1.24691165 7.42900705 0 4 C0 2.68 0 1.36 0 0 Z " fill="#BAB6B6" transform="translate(365,429)"/>
<path d="M0 0 C0.66 0 1.32 0 2 0 C1.49396008 2.16874252 1.00016187 3.99967627 0 6 C-0.66 6 -1.32 6 -2 6 C-2.33 7.32 -2.66 8.64 -3 10 C-4 7 -4 7 -3.22265625 5.17578125 C-2.1484375 3.45052083 -1.07421875 1.72526042 0 0 Z " fill="#A9A7A7" transform="translate(154,195)"/>
<path d="M0 0 C-3.47325181 1.1577506 -6.36067448 1.06866652 -10 1 C-10 0.34 -10 -0.32 -10 -1 C-5.92224809 -1.9267618 -3.57818963 -2.33958553 0 0 Z " fill="#646263" transform="translate(332,465)"/>
<path d="M0 0 C3 1 3 1 4.75 3.875 C6 7 6 7 5 10 C4.16121545 8.71186658 3.32913217 7.41936744 2.5 6.125 C2.0359375 5.40570313 1.571875 4.68640625 1.09375 3.9453125 C0 2 0 2 0 0 Z " fill="#9D9796" transform="translate(336,330)"/>
<path d="M0 0 C2.97 0 5.94 0 9 0 C8.67 0.66 8.34 1.32 8 2 C4.9375 2.625 4.9375 2.625 2 3 C2 2.34 2 1.68 2 1 C1.34 0.67 0.68 0.34 0 0 Z " fill="#949392" transform="translate(161,463)"/>
<path d="M0 0 C1 3 1 3 -0.4375 6.1875 C-1.2109375 7.5796875 -1.2109375 7.5796875 -2 9 C-2.66 9 -3.32 9 -4 9 C-2.94124926 5.59687262 -1.99097846 2.98646769 0 0 Z " fill="#949292" transform="translate(43,388)"/>
<path d="M0 0 C0.66 0 1.32 0 2 0 C1.38722388 2.96175123 0.74627478 4.38058783 -1 7 C-1.66 7 -2.32 7 -3 7 C-1.125 1.125 -1.125 1.125 0 0 Z " fill="#A5A3A1" transform="translate(178,154)"/>
</svg>
